<?xml version="1.0" encoding="utf-8"?>
<!-- Generator: Adobe Illustrator 19.0.0, SVG Export Plug-In . SVG Version: 6.00 Build 0)  -->
<svg version="1.1" id="图层_1" xmlns="http://www.w3.org/2000/svg" xmlns:xlink="http://www.w3.org/1999/xlink" x="0px" y="0px"
	 viewBox="0 0 120 38" style="enable-background:new 0 0 120 38;" xml:space="preserve">
<style type="text/css">
	.st0{fill:none;}
	.st1{opacity:0.5;fill:none;stroke:#FFFFFF;enable-background:new    ;}
	.st2{opacity:0.5003;fill:none;stroke:#FFFFFF;enable-background:new    ;}
	.st3{opacity:0.5003;fill:none;stroke:#FFFFFF;stroke-width:0.5;enable-background:new    ;}
	.st4{opacity:0.399;fill:none;stroke:#FFFFFF;stroke-width:0.5;enable-background:new    ;}
	.st5{opacity:0.2017;fill:none;stroke:#FFFFFF;stroke-width:0.5;enable-background:new    ;}
	.st6{opacity:0.3011;fill:none;stroke:#FFFFFF;stroke-linecap:square;enable-background:new    ;}
</style>
<g id="XMLID_28_">
	<g id="XMLID_37_">
		<path id="path-1" class="st0" d="M17.2,31.4c-0.3,0-0.8,0-1.5,0c-2.2,0-3.8-0.2-4.8-0.5c-0.6-0.2-1.3-0.6-2.1-1.1
			c-1-0.6-1.5-1.7-1.4-2.9c0.2-2,0.3-3.4,0.6-4.4c0.4-1.8,1.3-4,2.1-5.1c0.8-1,2.1-2.4,3.6-2.7c1-0.2,6.3-0.6,15.8-1.3
			c4.3-2.8,7.5-4.8,9.4-5.9c0.6-0.3,1.2-0.7,1.8-1l4-2l0,0c4.3-2,8-3,11-3.2C61.4,1,71.4,1.5,85.6,2.7c2.2,0.2,4.3,1,6.1,2.4
			c4.2,3.3,6.3,5.4,6.4,6.4c0.1,1.8,0.1,4.9,0.1,6.1c0,0.6,0.2,1.3,0.7,2c0.4,0.8,0.7,1.7,0.7,2.6v1.2c0,1.2-0.4,2.4-1.1,3.3
			l-0.6,0.8c-0.6,0.9-1.5,1.5-2.6,1.7l-5,1.3c-0.5,0-0.9,0-1.2,0"/>
	</g>
	<g id="深色">
		<g id="总览首页_xFF08_加载中_xFF09_" transform="translate(-128.000000, -264.000000)">
			<g id="Group-2" transform="translate(128.000000, 265.000000)">
				<g id="加载失败">
					<g id="Group-3" transform="translate(6.666667, 0.000000)">
						<path id="XMLID_36_" class="st1" d="M10.3,30.8c-2.2,0-5.1-0.1-6.2-0.4c-0.7-0.2-1.4-0.6-2.2-1.1c-1.1-0.7-1.8-2-1.7-3.4
							c0.2-2,0.3-3.5,0.6-4.5c0.5-1.9,1.4-4.2,2.2-5.2c1.1-1.5,2.5-2.6,4-2.8c1-0.2,6.2-0.6,15.7-1.3C27,9.3,30.1,7.3,32,6.3
							c0.6-0.3,1.2-0.7,1.8-1l4-2c4.3-2,8.1-3.1,11.2-3.3c5.8-0.3,15.8,0.2,30,1.4c2.3,0.2,4.5,1.1,6.4,2.5c4.3,3.4,6.5,5.6,6.6,6.8
							c0,0.7,0.1,1.5,0.1,2.7c0,0.4,0,0.7,0,1.5c0,1.1,0,1.6,0,1.9c0,0.5,0.2,1.1,0.6,1.8c0.5,0.9,0.7,1.9,0.7,2.9v1.2
							c0,1.3-0.4,2.6-1.2,3.6l-0.6,0.8c-0.7,0.9-1.7,1.6-2.8,1.9l-5.7,0.3"/>
						<path id="Path-9" class="st2" d="M22.8,12.2l68.6-1.7"/>
						<path id="Path-8" class="st2" d="M28.1,12.3c-0.9,1.9-1.3,4.2-1.4,7s0.6,6.4,2.1,11"/>
						<path id="Path-10" class="st2" d="M54.4,0.3c-1.1,1.7-1.9,3.2-2.2,4.5s-0.5,3.5-0.6,6.8c-0.6,1.3-1,3.2-1.2,5.6
							c-0.2,2.5,0.1,6.8,0.7,12.9"/>
						<path id="Path-11" class="st2" d="M68.7,1c2.7,5.9,4.1,9.2,4.2,10c0.2,1.1,1.1,6.7,0,8.2c-1.5,0.4-3.7,1.3-5.6,4.2
							c-1.2,1.9-1.9,4.2-2.1,6.8"/>
						<path id="Path-6" class="st2" d="M85.5,10.6c0.7,3.7,2.8,5.5,6.3,5.5"/>
						<path id="Rectangle-9" class="st3" d="M44.3,13.2h3.5c0.3,0,0.5,0.2,0.5,0.5l0,0c0,0.3-0.2,0.5-0.5,0.5h-3.5
							c-0.3,0-0.5-0.2-0.5-0.5l0,0C43.8,13.4,44,13.2,44.3,13.2z"/>
						<path id="Rectangle-9-Copy" class="st3" d="M66.6,12.6h3.5c0.3,0,0.5,0.2,0.5,0.5l0,0c0,0.3-0.2,0.5-0.5,0.5h-3.5
							c-0.3,0-0.5-0.2-0.5-0.5l0,0C66.1,12.8,66.4,12.6,66.6,12.6z"/>
						<circle id="Oval-14" class="st2" cx="17.7" cy="28.4" r="7.4"/>
						<circle id="Oval-14_1_" class="st2" cx="17.7" cy="28.4" r="5.6"/>
						<circle id="Oval-14-Copy" class="st2" cx="75.2" cy="28.4" r="7.4"/>
						<circle id="Oval-14-Copy_1_" class="st2" cx="75.2" cy="28.4" r="5.6"/>
						<path id="Path-12" class="st2" d="M12,13.3c0.4,1,0.4,1.6,0,1.8c-0.6,0.4-4.9,2.7-5.2,3.2c-0.3,0.5-1.1,0.9-2.1,0.8
							c-0.6,0-1.4-0.4-2.3-1"/>
						<path id="Combined-Shape" class="st4" d="M95.5,20.2l2.8-0.9c0-0.1,0-0.2,0-0.3c0-1.1,0.8-2,1.7-2c0.7,0,1.3,0.5,1.6,1.2
							c0.2,0,0.3,0,0.5,0c1.5,0,2.8,1.4,2.8,3.2c0,1.7-1.2,3.1-2.7,3.2c-0.4,0.7-1,1.2-1.8,1.2c-1.1,0-2-1-2.1-2.3l-2.8-0.9"/>
						<path id="Combined-Shape-Copy" class="st5" d="M106.9,20.9l1.6-0.5c0-0.1,0-0.1,0-0.2c0-0.6,0.4-1.1,1-1.1
							c0.4,0,0.8,0.3,0.9,0.7c0.1,0,0.2,0,0.3,0c0.9,0,1.6,0.8,1.6,1.8s-0.7,1.8-1.5,1.8c-0.2,0.4-0.6,0.7-1,0.7
							c-0.6,0-1.2-0.6-1.2-1.3l-1.6-0.5"/>
					</g>
					<path id="Line" class="st6" d="M0.5,36.4h6.1 M11.5,36.4h48.1 M62.8,36.4h13.6h27.9 M108,36.4h11.9"/>
				</g>
			</g>
		</g>
		<line id="XMLID_29_" class="st1" x1="31.6" y1="31.8" x2="74.4" y2="31.4"/>
	</g>
</g>
</svg>